<?xml version="1.0" encoding="utf-8"?>
<!-- Generator: Adobe Illustrator 23.0.6, SVG Export Plug-In . SVG Version: 6.00 Build 0)  -->
<svg version="1.1" id="Layer_1" xmlns:sketch="http://www.bohemiancoding.com/sketch/ns"
	 xmlns="http://www.w3.org/2000/svg" xmlns:xlink="http://www.w3.org/1999/xlink" x="0px" y="0px" viewBox="0 0 18 18"
	 style="enable-background:new 0 0 18 18;" xml:space="preserve">
<style type="text/css">
	.st0{fill-rule:evenodd;clip-rule:evenodd;fill:#FFFFFF;}
</style>
<title></title>
<desc></desc>
<g id="Page-1">
	<g id="Core" transform="translate(-339.000000, -171.000000)">
		<g id="drive-pdf" transform="translate(339.000000, 171.000000)">
			<path id="Shape" class="st0" d="M8.3,5.6L8.3,5.6L8.3,5.6C8.4,5.2,8.5,5,8.5,4.7V4.5c0.1-0.5,0.1-0.9,0-1c0,0,0,0,0-0.1L8.4,3.3
				l0,0c0,0,0,0.1-0.1,0.1C8.1,4,8.1,4.7,8.3,5.6L8.3,5.6L8.3,5.6z M5.3,12.5c-0.2,0.1-0.4,0.2-0.5,0.3c-0.7,0.6-1.2,1.3-1.3,1.6
				l0,0C4.1,14.3,4.7,13.7,5.3,12.5L5.3,12.5L5.3,12.5L5.3,12.5z M14.5,11c-0.1-0.1-0.5-0.4-1.9-0.4h-0.2l0,0c0,0,0,0,0,0.1
				c0.7,0.3,1.4,0.5,1.9,0.5h0.2l0,0h0.1c0,0,0,0,0-0.1l0,0C14.6,11.1,14.5,11.1,14.5,11L14.5,11z M16,0H2C0.9,0,0,0.9,0,2v14
				c0,1.1,0.9,2,2,2h14c1.1,0,2-0.9,2-2V2C18,0.9,17.1,0,16,0L16,0z M14.9,11.8C14.7,11.9,14.4,12,14,12c-0.8,0-2-0.2-3-0.7
				c-1.7,0.2-3,0.4-4,0.8c-0.1,0-0.1,0-0.2,0.1c-1.2,2.1-2.2,3.1-3,3.1c-0.2,0-0.3,0-0.4-0.1l-0.5-0.3v-0.1
				c-0.1-0.2-0.1-0.3-0.1-0.5c0.1-0.5,0.7-1.4,1.9-2.1c0.2-0.1,0.5-0.3,0.9-0.5c0.3-0.5,0.6-1.1,1-1.8c0.5-1,0.8-2,1.1-2.9l0,0
				C7.3,5.8,7.1,5.1,7.5,3.7c0.1-0.4,0.4-0.8,0.8-0.8h0.2c0.2,0,0.4,0.1,0.6,0.2c0.7,0.7,0.4,2.3,0,3.6v0.1c0.4,1.1,1,2,1.6,2.6
				c0.3,0.2,0.5,0.4,0.9,0.6c0.5,0,0.9-0.1,1.3-0.1c1.2,0,2,0.2,2.3,0.7c0.1,0.2,0.1,0.4,0.1,0.6C15.2,11.3,15.1,11.6,14.9,11.8
				L14.9,11.8z M8.4,7.9c-0.2,0.7-0.6,1.5-1,2.4C7.2,10.7,7,11,6.8,11.4h0.1H7c1.3-0.5,2.5-0.8,3.3-0.9c-0.2-0.1-0.3-0.2-0.4-0.3
				C9.4,9.6,8.8,8.8,8.4,7.9L8.4,7.9z"/>
		</g>
	</g>
</g>
</svg>
