<?xml version="1.0" encoding="utf-8"?>
<!-- Generator: Adobe Illustrator 23.0.6, SVG Export Plug-In . SVG Version: 6.00 Build 0)  -->
<svg version="1.1" id="Capa_1" xmlns="http://www.w3.org/2000/svg" xmlns:xlink="http://www.w3.org/1999/xlink" x="0px" y="0px"
	 viewBox="0 0 469.3 469.3" style="enable-background:new 0 0 469.3 469.3;" xml:space="preserve">
<style type="text/css">
	.st0{fill:#FFFFFF;}
</style>
<g>
	<g>
		<g>
			<path class="st0" d="M344.5,153.8c-3.9-3.9-10.8-3.9-14.6,0L133,350.8c-2.4,2.4-3.4,5.7-2.9,9c0.5,3.3,2.6,6.1,5.6,7.6l16.2,8.1
				v27.2l-49.5,14.2l-50-50l14.2-49.6h27.2l8.1,16.2c1.5,3,4.3,5.1,7.6,5.6c0.6,0.1,1.1,0.1,1.7,0.1c2.7,0,5.4-1.1,7.3-3l196.8-197
				c1.9-1.9,3-4.6,3-7.3c0-2.8-1.1-5.4-3-7.3l-38.1-38.1c-1.9-1.9-4.6-3-7.3-3h0c-2.8,0-5.4,1.1-7.3,3.1L51.4,299.7
				c-0.1,0.1-0.1,0.3-0.2,0.4c-1.1,1.1-1.9,2.5-2.4,4.1l-18,62.9L7.4,449.1c-1,3.6,0,7.5,2.6,10.2c2,2,4.6,3,7.3,3
				c0.9,0,1.9-0.1,2.8-0.4l82-23.4l62.9-18c0.2-0.1,0.3-0.2,0.5-0.3c0.7-0.2,1.2-0.6,1.8-0.9c0.6-0.4,1.2-0.7,1.7-1.1
				c0.1-0.1,0.3-0.2,0.4-0.3l213-211.3c2-1.9,3.1-4.6,3.1-7.3c0-2.8-1.1-5.4-3-7.3L344.5,153.8z"/>
			<path class="st0" d="M450.2,80.9l-62.1-62.1c-15.6-15.7-42.9-15.7-58.6,0l-37.9,38.3c-4,4.1-4,10.6,0,14.6l105.6,105.7
				c2,2,4.7,3,7.3,3c2.6,0,5.3-1,7.3-3l38.3-38c7.8-7.8,12.1-18.2,12.1-29.3S458,88.7,450.2,80.9z"/>
		</g>
	</g>
</g>
</svg>
